<mxfile host="app.diagrams.net" modified="2024-08-07T12:23:30.618Z" agent="Mozilla/5.0 (Windows NT 10.0; Win64; x64) AppleWebKit/537.36 (KHTML, like Gecko) Chrome/127.0.0.0 Safari/537.36" version="22.1.16" etag="ewYg1tzbopIrikrjQCwF" type="github">
  <diagram name="第 1 页" id="p4FBaH916Qw2DBYNgHHf">
    <mxGraphModel>
      <root>
        <mxCell id="0" />
        <mxCell id="1" parent="0" />
      </root>
    </mxGraphModel>
  </diagram>
</mxfile>
